Coordinates
version=1
nRows=26
nColumns=22
inDegrees=yes

Units are S.I. units (second, meters, Newtons, ...)
If the header above contains a line with 'inDegrees', this indicates whether rotational values are in degrees (yes) or radians (no).

endheader
time	pelvis_tilt	pelvis_list	pelvis_rotation	pelvis_tx	pelvis_ty	pelvis_tz	hip_flexion_r	hip_adduction_r	hip_rotation_r	knee_angle_r	ankle_angle_r	subtalar_angle_r	hip_flexion_l	hip_adduction_l	hip_rotation_l	knee_angle_l	ankle_angle_l	subtalar_angle_l	lumbar_extension	lumbar_bending	lumbar_rotation
      0.01000000	     -8.01514370	     -0.45353158	    -16.01613157	     -1.12303419	      0.88529126	     -0.46813311	      8.75934922	     -1.93742181	      5.85204443	     -8.11521469	     10.96051128	      0.01466571	      4.88679013	     -4.71065324	    -12.62835702	     -8.85364732	     14.62386321	      4.61125890	      3.80266168	      0.59951176	     11.94173462
      0.02000000	     -8.00721650	     -0.45526109	    -16.03242423	     -1.12316605	      0.88530724	     -0.46810873	      8.78221377	     -1.93067841	      5.85250749	     -8.15455421	     10.95523085	      0.01211269	      4.87706966	     -4.71359058	    -12.60834560	     -8.84572952	     14.59918863	      4.62490380	      3.77419912	      0.59768467	     11.96748912
      0.03000000	     -8.00847032	     -0.45364695	    -16.03918330	     -1.12327897	      0.88530343	     -0.46809330	      8.79092540	     -1.92862768	      5.85126460	     -8.15020780	     10.95647460	      0.01194208	      4.88101100	     -4.71569878	    -12.60699148	     -8.84199928	     14.59784244	      4.62594875	      3.76067369	      0.59513547	     11.96821655
      0.04000000	     -8.00293415	     -0.45510419	    -16.06097305	     -1.12343647	      0.88531594	     -0.46805498	      8.81124727	     -1.91979306	      5.86813529	     -8.17538792	     10.95357194	      0.01095764	      4.88272236	     -4.72217854	    -12.58543137	     -8.85429608	     14.57710608	      4.63211778	      3.73453323	      0.59368550	     11.99730695
      0.05000000	     -8.00383613	     -0.45326583	    -16.07090794	     -1.12355563	      0.88531617	     -0.46802312	      8.82066239	     -1.91702876	      5.86762519	     -8.17166788	     10.95404683	      0.01083752	      4.88670909	     -4.72537580	    -12.58370676	     -8.85252809	     14.57542601	      4.63245249	      3.72143668	      0.59085284	     11.99846010
      0.06000000	     -7.99801876	     -0.45588616	    -16.09610986	     -1.12369712	      0.88533316	     -0.46796439	      8.83958796	     -1.90616803	      5.88980511	     -8.19753032	     10.94703315	      0.01016242	      4.89032389	     -4.73476656	    -12.56906455	     -8.87376049	     14.55592281	      4.63219767	      3.70054968	      0.59165521	     12.02991755
      0.07000000	     -7.99791359	     -0.45385855	    -16.10583959	     -1.12379450	      0.88533798	     -0.46791466	      8.84624705	     -1.90286006	      5.88976306	     -8.19445875	     10.94731664	      0.01004814	      4.89328080	     -4.73797454	    -12.56890039	     -8.87307951	     14.55496991	      4.63180192	      3.69204585	      0.58903181	     12.03033998
      0.08000000	     -7.99073280	     -0.45838148	    -16.13278179	     -1.12390559	      0.88535881	     -0.46783484	      8.85792219	     -1.88934785	      5.92153611	     -8.21643584	     10.94072414	      0.00869964	      4.89491474	     -4.75004452	    -12.57323165	     -8.89586349	     14.54027070	      4.62629981	      3.67676681	      0.59406053	     12.06068071
      0.09000000	     -7.98905755	     -0.45628811	    -16.14320717	     -1.12397700	      0.88536533	     -0.46775969	      8.86073146	     -1.88505768	      5.92180595	     -8.21363093	     10.94108833	      0.00849423	      4.89544526	     -4.75337259	    -12.57436051	     -8.89615520	     14.54043626	      4.62567897	      3.67405385	      0.59109837	     12.05953560
      0.10000000	     -7.97749465	     -0.47065684	    -16.17925884	     -1.12406840	      0.88539576	     -0.46763855	      8.85764827	     -1.85998161	      5.97802106	     -8.22338548	     10.93745437	      0.00424039	      4.88506458	     -4.77715177	    -12.61088915	     -8.91431078	     14.53619931	      4.61721034	      3.65545277	      0.60865428	     12.08622104
      0.11000000	     -7.97371705	     -0.46858940	    -16.18714296	     -1.12411393	      0.88540645	     -0.46754272	      8.85561528	     -1.85514602	      5.97768818	     -8.22210896	     10.93711554	      0.00387509	      4.88354815	     -4.78059170	    -12.61149531	     -8.91527283	     14.53713297	      4.61707846	      3.65888500	      0.60485389	     12.08524375
      0.12000000	     -7.96834325	     -0.46762974	    -16.19883319	     -1.12415517	      0.88541941	     -0.46743235	      8.85245211	     -1.84872582	      5.98050486	     -8.22095668	     10.93674680	      0.00323848	      4.87951652	     -4.78613816	    -12.61323074	     -8.91828304	     14.53772911	      4.61709106	      3.66227606	      0.60304927	     12.08344869
      0.13000000	     -7.93715313	     -0.50490405	    -16.24329984	     -1.12419426	      0.88548614	     -0.46724921	      8.79975891	     -1.80238419	      6.05515112	     -8.19581074	     10.91828110	     -0.01561746	      4.83334233	     -4.83113669	    -12.68974242	     -8.92516201	     14.56033446	      4.62805452	      3.62481418	      0.63847032	     12.12684733
      0.14000000	     -7.93107065	     -0.50228066	    -16.25277925	     -1.12423046	      0.88549877	     -0.46713795	      8.79650655	     -1.79823990	      6.05696295	     -8.19623462	     10.91762941	     -0.01656659	      4.83055288	     -4.83436277	    -12.69014885	     -8.92638158	     14.56024858	      4.62929161	      3.62873238	      0.63609089	     12.12001173
      0.15000000	     -7.92460849	     -0.50094072	    -16.26015332	     -1.12425822	      0.88551365	     -0.46702316	      8.79162717	     -1.79257950	      6.06157652	     -8.19770604	     10.91747590	     -0.01762308	      4.82677688	     -4.83862116	    -12.69400615	     -8.92709613	     14.56054740	      4.63086952	      3.63340559	      0.63453153	     12.11268210
      0.16000000	     -7.89439176	     -0.52582539	    -16.29420540	     -1.12428536	      0.88557209	     -0.46685451	      8.74626999	     -1.76117064	      6.11972229	     -8.18108543	     10.91569743	     -0.04118038	      4.78587147	     -4.86896058	    -12.76780475	     -8.92852950	     14.57411656	      4.66823473	      3.60068735	      0.65890021	     12.12323188
      0.17000000	     -7.88904571	     -0.52244903	    -16.29940942	     -1.12430066	      0.88558270	     -0.46673962	      8.74257781	     -1.75782589	      6.12006306	     -8.18326787	     10.91477123	     -0.04184261	      4.78305749	     -4.87119918	    -12.76848072	     -8.92924875	     14.57446921	      4.66941983	      3.60828263	      0.65701850	     12.11871253
      0.18000000	     -7.88427275	     -0.51920103	    -16.30548370	     -1.12431551	      0.88559143	     -0.46662095	      8.73923120	     -1.75415511	      6.12117600	     -8.18557451	     10.91454826	     -0.04256313	      4.77977882	     -4.87405176	    -12.77104690	     -8.92943402	     14.57463264	      4.67056283	      3.61535735	      0.65630306	     12.11247609
      0.19000000	     -7.87948281	     -0.52120499	    -16.31769092	     -1.12432113	      0.88560175	     -0.46648607	      8.73655789	     -1.74314701	      6.13532376	     -8.19209489	     10.91837529	     -0.04852454	      4.76624219	     -4.88301295	    -12.80106151	     -8.91779663	     14.57436144	      4.67823621	      3.62056847	      0.66608830	     12.08340959
      0.20000000	     -7.87505674	     -0.51773846	    -16.32247314	     -1.12432046	      0.88560752	     -0.46636002	      8.73286400	     -1.73929656	      6.13603372	     -8.19484103	     10.91879836	     -0.04930633	      4.76148472	     -4.88620783	    -12.80114119	     -8.92134874	     14.57341898	      4.67916606	      3.62919849	      0.66673033	     12.08171022
      0.21000000	     -7.87142995	     -0.51436100	    -16.32817458	     -1.12431988	      0.88561067	     -0.46623090	      8.73033964	     -1.73493569	      6.13737243	     -8.19807324	     10.92004413	     -0.05029387	      4.75608832	     -4.89009035	    -12.80218025	     -8.92401964	     14.57187387	      4.67999718	      3.63738130	      0.66918619	     12.07745884
      0.22000000	     -7.86862370	     -0.51158611	    -16.33285988	     -1.12431463	      0.88561112	     -0.46610365	      8.72869921	     -1.72977839	      6.13987926	     -8.20277081	     10.92236038	     -0.05158160	      4.75044627	     -4.89443026	    -12.80428410	     -8.92552340	     14.56954377	      4.68073670	      3.64572686	      0.67374708	     12.07084451
      0.23000000	     -7.87252570	     -0.51906370	    -16.33799068	     -1.12433148	      0.88560446	     -0.46597628	      8.73863545	     -1.71038175	      6.15359676	     -8.22099846	     10.93922108	     -0.05963222	      4.74553696	     -4.91183391	    -12.82006426	     -8.91437060	     14.55845975	      4.68426669	      3.65184423	      0.69461269	     12.04174588
      0.24000000	     -7.88209845	     -0.52397231	    -16.33940712	     -1.12435183	      0.88558306	     -0.46584940	      8.75788111	     -1.69127796	      6.15561421	     -8.24530156	     10.95976317	     -0.07637358	      4.75593861	     -4.92988012	    -12.82159075	     -8.92020999	     14.55263288	      4.69254251	      3.66591463	      0.71139234	     12.03346652
      0.25000000	     -7.90830784	     -0.51120145	    -16.33215261	     -1.12438634	      0.88552765	     -0.46576007	      8.80348948	     -1.68901656	      6.14627704	     -8.27372860	     10.97240414	     -0.10832070	      4.80299659	     -4.93401178	    -12.82110497	     -8.94808709	     14.56796882	      4.71025682	      3.70298713	      0.71700556	     12.01088197
      0.26000000	     -7.90720058	     -0.50717272	    -16.32448911	     -1.12439852	      0.88552003	     -0.46564254	      8.80288307	     -1.68510788	      6.14855654	     -8.27761429	     10.97310980	     -0.10895092	      4.80426984	     -4.93816897	    -12.82235691	     -8.94782886	     14.56750037	      4.71058423	      3.70693471	      0.71581832	     12.00989176
